<svg xmlns="http://www.w3.org/2000/svg" width="800" height="400" viewBox="0 0 800 400">
  <defs>
    <linearGradient id="grad1" x1="0%" y1="0%" x2="100%" y2="100%">
      <stop offset="0%" style="stop-color:#667eea;stop-opacity:1" />
      <stop offset="100%" style="stop-color:#764ba2;stop-opacity:1" />
    </linearGradient>
  </defs>
  <rect width="800" height="400" fill="url(#grad1)"/>
  
  <!-- Neural network visualization -->
  <!-- Input layer -->
  <circle cx="150" cy="100" r="20" fill="rgba(255,255,255,0.9)"/>
  <circle cx="150" cy="200" r="20" fill="rgba(255,255,255,0.9)"/>
  <circle cx="150" cy="300" r="20" fill="rgba(255,255,255,0.9)"/>
  
  <!-- Hidden layer -->
  <circle cx="350" cy="80" r="20" fill="rgba(255,255,255,0.7)"/>
  <circle cx="350" cy="160" r="20" fill="rgba(255,255,255,0.7)"/>
  <circle cx="350" cy="240" r="20" fill="rgba(255,255,255,0.7)"/>
  <circle cx="350" cy="320" r="20" fill="rgba(255,255,255,0.7)"/>
  
  <!-- Hidden layer 2 -->
  <circle cx="500" cy="120" r="20" fill="rgba(255,255,255,0.7)"/>
  <circle cx="500" cy="200" r="20" fill="rgba(255,255,255,0.7)"/>
  <circle cx="500" cy="280" r="20" fill="rgba(255,255,255,0.7)"/>
  
  <!-- Output layer -->
  <circle cx="650" cy="200" r="20" fill="rgba(255,255,255,0.9)"/>
  
  <!-- Connections (simplified) -->
  <line x1="170" y1="100" x2="330" y2="80" stroke="rgba(255,255,255,0.3)" stroke-width="2"/>
  <line x1="170" y1="100" x2="330" y2="160" stroke="rgba(255,255,255,0.3)" stroke-width="2"/>
  <line x1="170" y1="200" x2="330" y2="160" stroke="rgba(255,255,255,0.3)" stroke-width="2"/>
  <line x1="170" y1="200" x2="330" y2="240" stroke="rgba(255,255,255,0.3)" stroke-width="2"/>
  <line x1="170" y1="300" x2="330" y2="240" stroke="rgba(255,255,255,0.3)" stroke-width="2"/>
  <line x1="170" y1="300" x2="330" y2="320" stroke="rgba(255,255,255,0.3)" stroke-width="2"/>
  
  <line x1="370" y1="80" x2="480" y2="120" stroke="rgba(255,255,255,0.3)" stroke-width="2"/>
  <line x1="370" y1="160" x2="480" y2="120" stroke="rgba(255,255,255,0.3)" stroke-width="2"/>
  <line x1="370" y1="160" x2="480" y2="200" stroke="rgba(255,255,255,0.3)" stroke-width="2"/>
  <line x1="370" y1="240" x2="480" y2="200" stroke="rgba(255,255,255,0.3)" stroke-width="2"/>
  <line x1="370" y1="240" x2="480" y2="280" stroke="rgba(255,255,255,0.3)" stroke-width="2"/>
  <line x1="370" y1="320" x2="480" y2="280" stroke="rgba(255,255,255,0.3)" stroke-width="2"/>
  
  <line x1="520" y1="120" x2="630" y2="200" stroke="rgba(255,255,255,0.3)" stroke-width="2"/>
  <line x1="520" y1="200" x2="630" y2="200" stroke="rgba(255,255,255,0.3)" stroke-width="2"/>
  <line x1="520" y1="280" x2="630" y2="200" stroke="rgba(255,255,255,0.3)" stroke-width="2"/>
</svg>
